# Exported from Wings 3D 2.2.4
mtllib test_uv_cube.mtl
o Cube1
#8 vertices, 12 faces
v -0.50000000 -0.50000000 -0.50000000
v -0.50000000 -0.50000000 0.50000000
v -0.50000000 0.50000000 -0.50000000
v -0.50000000 0.50000000 0.50000000
v 0.50000000 -0.50000000 -0.50000000
v 0.50000000 -0.50000000 0.50000000
v 0.50000000 0.50000000 -0.50000000
v 0.50000000 0.50000000 0.50000000
vt 0.0000000e+0 0.0000000e+0
vt 0.0000000e+0 1.00000000
vt 1.00000000 0.0000000e+0
vt 1.00000000 1.00000000
vn -0.57735027 -0.57735027 -0.57735027
vn -0.57735027 -0.57735027 0.57735027
vn -0.57735027 0.57735027 -0.57735027
vn -0.57735027 0.57735027 0.57735027
vn 0.57735027 -0.57735027 -0.57735027
vn 0.57735027 -0.57735027 0.57735027
vn 0.57735027 0.57735027 -0.57735027
vn 0.57735027 0.57735027 0.57735027
g Cube1_Cube1_auv
usemtl Cube1_auv
s 1
f 3/2/3 8/3/8 7/4/7
f 4/1/4 8/3/8 3/2/3
g Cube1_default
usemtl default
s 1
f 1//1 5//5 2//2
f 2//2 3//3 1//1
f 2//2 5//5 6//6
f 2//2 8//8 4//4
f 3//3 5//5 1//1
f 4//4 3//3 2//2
f 5//5 8//8 6//6
f 6//6 8//8 2//2
f 7//7 5//5 3//3
f 7//7 8//8 5//5
